<svg xmlns="http://www.w3.org/2000/svg" viewBox="0 0 200 200" width="200" height="200">
  <defs>
    <linearGradient id="il2" x1="0%" y1="0%" x2="100%" y2="100%">
      <stop offset="0%" style="stop-color:#4ade80"/>
      <stop offset="100%" style="stop-color:#16a34a"/>
    </linearGradient>
    <linearGradient id="ir2" x1="100%" y1="0%" x2="0%" y2="100%">
      <stop offset="0%" style="stop-color:#22c55e"/>
      <stop offset="100%" style="stop-color:#15803d"/>
    </linearGradient>
  </defs>

  <!-- Background -->
  <rect width="200" height="200" fill="#f0fdf4"/>

  <!-- Left leaf -->
  <path d="M82 150 C82 88, 48 65, 32 22 C55 36, 82 60, 95 150Z" fill="url(#il2)"/>
  <path d="M82 150 C78 100, 58 74, 32 22" fill="none" stroke="#15803d" stroke-width="2" opacity="0.35"/>
  <path d="M79 125 C71 108, 58 92, 42 68" fill="none" stroke="#15803d" stroke-width="0.9" opacity="0.2"/>

  <!-- Right leaf -->
  <path d="M108 150 C108 88, 142 65, 158 22 C135 36, 108 60, 95 150Z" fill="url(#ir2)"/>
  <path d="M108 150 C112 100, 132 74, 158 22" fill="none" stroke="#166534" stroke-width="2" opacity="0.35"/>
  <path d="M111 125 C119 108, 132 92, 148 68" fill="none" stroke="#166534" stroke-width="0.9" opacity="0.2"/>

  <!-- "dg" text -->
  <text x="100" y="185" text-anchor="middle" font-family="'Segoe UI', 'Helvetica Neue', Arial, sans-serif" font-size="24" font-weight="300" fill="#374151">duo<tspan font-weight="600" fill="#16a34a">garden</tspan></text>
</svg>
